<?xml version="1.0" encoding="UTF-8"?>
<svg id="_Слой_2" data-name="Слой 2" xmlns="http://www.w3.org/2000/svg" viewBox="0 0 203.73 109.63">
  <defs>
    <style>
      .cls-1 {
        fill: #03008b;
      }
    </style>
  </defs>
  <g id="_Слой_2-2" data-name="Слой 2">
    <path class="cls-1" d="M142.88,70.83c-7.59,3.67-11.53,11.97-7.44,19.63,3.52,7.21,11.2,11.68,18.85,13.43,11.99,2.71,25.61-.27,34.26-9.33,14.55-14.52,13.53-42.69-2.28-54.98-9.48-7.88-23.54-9.29-35.67-7.28-4.27.65-8.45,1.72-12.67,2.88-7.79,3.6-16.9,8.98-24.59,14.18-11.93,7.98-23.54,16.6-36.04,23.79-13.42,7.89-26.11,12.78-41.94,11.15-5.49-.51-11.52-1.34-16.62-4.24C5.02,71.52-2.14,59.52.56,43.1c1.35-7.3,3.5-14.49,7.33-20.84,4.49-7.28,11.15-13.19,18.73-17.11,12.2-6.2,27.6-7.36,39.86-.43,8.94,5.32,14.91,15.1,16.39,25.31,2.14,12.87-5.17,26.08-16.79,31.74-9.07,4.47-20.92,5.46-29.39-.89-8.19-6.25-12.56-18.02-8.47-27.77,1.95-4.8,5.65-8.3,9.87-11.15,2.1-1.45,4.66-2.68,7.47-2.74,2.8-.07,5.59.66,8,2.13,5.12,2.89,6.28,9.2,6.43,14.58.28,5.76-2.75,12.78-9.44,13.07-6.58.65-13.38-3.5-10.8-10.85,1.08-2.74,3.5-4.61,6.17-5.43.58-.17,1.19.16,1.36.74.14.49-.07,1-.48,1.25-4.24,2.44-5.54,8.75.37,9.35,5.92,1.01,8.13-2.53,8.24-8.1-.09-3.92-.64-8.55-4.27-10.67-3.61-2.12-7.86-2.38-11.99-1.24-2.18.69-3.95,2.28-5.43,4-6.39,7.09-4.53,17.57,1.22,24.43,4.76,6.06,12.36,9.49,20.02,9.25,9.06-.33,17.42-6.56,21.19-14.68,6.24-13.34-1.07-29.65-12.78-37.34-7.37-5.17-16.92-6.76-25.9-5.66-9.31.96-18.24,5.82-23.65,13.55-5.49,7.54-9.08,16.51-9.15,25.89-.28,9.29,1.11,17.71,7.68,24.75,2.95,3.25,6.46,6.24,10.3,8.39,12.28,4.97,28.03,5,40.39,0,26.73-10.76,48.33-30.54,74.13-43.42,8.4-2.69,17.15-4.86,26.23-5.29,27.39-1.39,43.48,18.32,39.82,45-3.01,21.77-20.84,37.78-43.08,36.67-9.27-.38-18.98-3.75-25.22-10.93-4.96-5.39-7.92-13.99-3.23-20.49,1.34-2.01,3.01-3.67,4.83-5.07,1.82-1.4,3.78-2.55,5.92-3.37.31-.12.66.04.78.35.12.31-.03.65-.33.77h0Z"/>
  </g>
</svg>