<?xml version="1.0" encoding="UTF-8"?>
<svg id="_Слой_2" data-name="Слой 2" xmlns="http://www.w3.org/2000/svg" viewBox="0 0 71.65 27.42">
  <defs>
    <style>
      .cls-1 {
        fill: #f8b2a0;
        stroke: #42383d;
        stroke-linecap: round;
        stroke-linejoin: round;
        stroke-width: 2px;
      }
    </style>
  </defs>
  <g id="_Слой_2-2" data-name="Слой 2">
    <path class="cls-1" d="M1,15.18c2.84-.59,7.03-1.71,11.72-3.97,6.73-3.25,9.29-6.36,12.63-8.21,4.77-2.64,13.02-3.76,28.2,3.75-.98-.26-2.61-.56-4.57-.28-.38.05-4.39.62-4.56,1.98-.17,1.35,3.4,3.8,7.19,3.91,4.62.13,6.25-3.32,10.94-3.66,3.37-.25,6.23,1.25,8.1,2.53,0,0-3.67-1.04-7.72-.43-7.18,1.08.53,3.62-14.52,9.7-8.84,3.71-20-5.25-20-5.25-.04.13-.75,2.88,1.13,4.85,1.5,1.57,4.47.48,6.09.85s4.43,2.08,4.43,2.08c0,0-2.13.35-4.09.49-4.99.38-7.85,3.23-9.79,2.87S20.94,15.64,1,15.18Z"/>
  </g>
</svg>