<?xml version="1.0" encoding="UTF-8"?>
<svg id="_Слой_2" data-name="Слой 2" xmlns="http://www.w3.org/2000/svg" viewBox="0 0 701.53 118.39">
  <defs>
    <style>
      .cls-1 {
        fill: #03008b;
      }
    </style>
  </defs>
  <g id="_Слой_2-2" data-name="Слой 2">
    <g>
      <g>
        <path class="cls-1" d="M301.34,40.6c-6.41-2.58-12.86-8.01-13.24-15.45-.15-7.56,4.98-14.03,10.83-18.23,7.81-5.3,17.46-7.1,26.71-6.12,19.94,1.84,34.57,18.33,36.71,37.83,2.25,19.08-6.43,37.43-26.09,42.26-13.31,3.28-27.26.13-39.89-3.74-25.9-12.67-47.66-32.28-74.47-42.83-12.4-4.92-28.14-4.76-40.39.32-5.69,3.34-10.76,8.15-14.08,13.85-3.43,5.87-3.76,12.78-3.62,19.43.15,9.38,3.81,18.33,9.36,25.82,1.37,1.84,3.02,3.68,4.71,5.22,8.72,7.85,21.59,9.86,32.76,7.53,8.77-1.92,16.31-7.06,21.3-14.45,4.88-7.27,7.32-16.63,4.53-25.14-2.67-8.62-10.3-15.46-19.15-17.27-8.67-1.52-17.92,2.09-23.31,9.07-5.69,6.9-7.47,17.4-1.02,24.44,1.49,1.7,3.28,3.28,5.46,3.95,4.14,1.12,8.39.81,11.98-1.33,1.66-1.07,2.69-2.37,3.31-4.31,1.06-3.66,1.48-8.79-.54-12.1-.98-1.57-2.06-2.27-3.93-2.43-2.34-.09-5.73-.05-6.7,2.5-.93,2.75.9,5.34,3.46,6.97,1.08.65.29,2.34-.88,1.98-8.83-2.54-9.28-14.33.32-16.03,11.06-2.39,14.99,7.36,13.43,16.59-.51,5.9-3.87,10.95-9.86,12.4-3.93,1.27-8.47.19-11.63-2.15-4.25-2.81-7.98-6.28-9.96-11.07-4.17-9.72.11-21.52,8.25-27.83,12.75-9.34,32.1-3.68,40.91,8.53,11.44,14.86,4.84,38.06-10.67,47.39-14.42,8.25-33,5.44-46.14-3.87-6.93-5.02-12.8-11.73-15.93-19.77-3.14-8.03-5.6-16.76-4.45-25.49,1.08-11.81,10.04-21.37,20.05-26.84,4.84-2.09,9.8-2.91,14.7-3.36,12.29-1.4,24.8,1.45,35.62,7.41,23.33,11.7,44.11,30.46,67.34,40.88,8.32,2.28,16.89,3.97,25.49,3.42,28.03-.81,42.33-27.73,31.69-53.03-5.12-11.45-16.58-19.38-29.1-20.1-11.74-1-25.48,3.38-31.01,14.47-1.6,3.44-2.28,7.15-.82,10.78,1.44,3.71,4.62,7.02,8.42,8.78.31.13.47.5.32.81-.13.29-.47.42-.76.31h0Z"/>
        <path class="cls-1" d="M166.47,47.92c-4.01,12.73-6.74,25.6-11.33,38.22-1.51,4.29-4.27,8.18-6.86,11.99-5.12,7.64-12.44,14.4-21.27,17.59-10.96,4.28-23.02,2.82-34-.33-15.36-3.69-29.06-12.45-39.93-23.79-6.36-6.41-11.19-14.68-13.04-23.59-3.52-18.6,6.8-38.25,23.3-47.15,13.23-7.11,27.29-7.6,40.29.25,7.96,4.71,14.81,11.46,18.72,19.92,2.73,6.58,4.51,13.86,2.92,21.03-1.69,7.47-8.31,13.66-15.54,15.26-6.91,1.52-14.42.88-20.77-2.23-2.08-1.08-3.94-2.55-5.51-4.24-2.38-2.58-4.8-5.62-5.33-9.34-.62-4.4,2.52-9.33,7.28-9.71,4.59-.2,7.89,3.12,10.23,6.56,4.54,7.36,3.05,17.65-1.62,24.54-1.26,1.8-4.05.2-3.14-1.78,1.3-2.81,2.13-5.73,2.38-8.77.23-3.77.07-7.95-2.04-11.11-2.43-3.48-5.76-6.43-8.68-2.05-2.15,3.34-.25,7.74,2.16,10.56,3.48,4.17,9.21,5.26,14.36,4.44,6.71-.94,14-3.06,18.2-8.64,3.58-4.6,3.81-11.12,2.79-16.91-.88-6.25-3.68-12.12-8-16.74-18.35-20.28-51.49-11.56-63.4,11.31-4.09,7.4-5.46,15.93-4.83,24.34.18,4.28.88,8.54,2.83,12.42,14.34,25.59,50.61,40.56,78.44,30.65,7.94-2.91,14.55-8.22,19.5-15.14,2.47-3.44,5.04-6.75,6.44-10.89,1.43-4.01,2.49-8.29,3.68-12.55,2.37-8.53,5.19-17.07,8.95-25.18.75-1.66,3.35-.74,2.82,1.07h0Z"/>
        <path class="cls-1" d="M13.03,28.71c11.62-1.78,16.69,10.74,8.93,18.82-4.4,4.8-12.16,3.89-16.91.3C-.77,43.2-.96,34.52,1.48,28.09c4.95-12.7,22.31-14.73,32.85-8.1,7.11,4.38,11.07,12.61,11.86,20.76.16,2.07.08,4.16-.25,6.21-.13.68-.09,1.41-.85,1.93-.97.68-2.33.34-2.89-.69-.46-.73-.16-1.27-.08-1.87,2.53-15.31-6.65-28.95-23.21-26.09-4.68.85-9.03,3.16-11.65,6.74-3.58,5.1-6.77,14.42-.89,19.01,3.76,2.48,8.76.6,11.64-2.31,2.61-2.67,4.8-7.4,1.42-10.38-1.52-1.39-3.84-2.1-6.15-2.02-1.59.04-1.81-2.3-.24-2.55h0Z"/>
      </g>
      <g>
        <path class="cls-1" d="M399.74,38.96c7.62-3.61,11.63-11.87,7.6-19.57-3.46-7.24-11.11-11.77-18.74-13.58-11.97-2.81-25.61.07-34.33,9.05-14.66,14.4-13.88,42.58,1.84,54.99,13.13,10.93,32.65,9.35,48.31,4.78,21.03-9.44,40.32-25.88,60.93-37.48,13.48-7.79,26.21-12.56,42.03-10.81,5.23.49,10.72,1.39,15.74,3.87,4.08,2.45,7.76,5.43,10.98,8.96,11.4,12,9.43,28.7,3.58,42.86-9.15,23.16-39.76,36.24-62.07,23.64-8.9-5.39-14.79-15.21-16.19-25.44-2.04-12.89,5.38-26.03,17.04-31.6,13.49-6.55,29.77-4.3,36.71,10.22,4.09,8.16,3.28,18.38-3.21,25.04-3.64,3.46-7.95,7.22-13.33,7.45-4.25.05-8.59-1.68-11.25-5.14-3.46-4.93-4.19-14.4-1.2-19.8,2.23-4.38,7.42-5.64,11.88-4.59,5.03.72,8.59,5.67,6.53,10.64-1.1,2.73-3.53,4.58-6.21,5.38-.58.17-1.19-.17-1.36-.75-.14-.49.07-.99.49-1.24,2.55-1.63,4.37-4.21,3.44-6.95-.97-2.55-4.36-2.59-6.7-2.5-6.44.71-5.81,9.87-4.46,14.53,1.14,3.91,5.15,5.82,8.93,6.15,4.52.54,8.83-.66,11.82-4.46,4.66-5.09,5.24-12.7,2.38-18.81-6.76-15.34-26.15-20.19-38.66-8.58-8.63,7.52-10.57,20.26-5.83,30.47,4.31,10.26,13.53,17.92,24.45,20.27,10.06,2.08,21.44.69,30.01-5.33,2.84-2.05,5.38-4.6,7.46-7.42,5.55-7.49,9.21-16.44,9.36-25.82.14-6.65-.2-13.56-3.62-19.43-3.2-5.56-8.12-10.12-13.51-13.55-4.08-2.08-8.85-3.06-13.67-3.65-9.21-1.11-18.67-.48-27.29,3.04-26.87,10.55-48.65,30.26-74.64,42.89-17.6,5.51-40.27,9.41-55.15-4.62-8.71-8.08-11.84-20.74-10.81-32.24,1.03-14.93,9.8-29.44,23.54-35.88,12.63-5.82,28.32-5.39,40.02,2.45,5.84,4.19,10.98,10.67,10.83,18.23-.15,5.05-3.51,9.27-7.3,12.13-1.83,1.39-3.8,2.52-5.94,3.32-.31.12-.66-.04-.78-.35-.12-.31.04-.65.34-.77h0Z"/>
        <path class="cls-1" d="M537.87,46.33c5.79,12,8.64,25.21,12.63,37.74,1.4,4.14,3.97,7.45,6.44,10.89,2.54,3.48,5.42,6.59,8.68,9.14,10.04,7.85,23.23,10.05,35.73,8.68,21.14-1.94,42.92-14.54,53.52-33.33,1.95-3.89,2.65-8.14,2.83-12.43.63-8.41-.74-16.94-4.83-24.34-11.91-22.87-45.05-31.59-63.4-11.31-4.32,4.62-7.11,10.49-8,16.74-1.02,5.78-.8,12.31,2.79,16.91,4.2,5.58,11.49,7.7,18.2,8.64,5.15.82,10.88-.27,14.36-4.44,2.41-2.82,4.3-7.22,2.16-10.56-2.93-4.37-6.25-1.44-8.68,2.05-2.11,3.15-2.27,7.34-2.04,11.11.25,3.04,1.08,5.97,2.38,8.77.91,1.99-1.89,3.59-3.13,1.79-4.67-6.88-6.16-17.17-1.62-24.54,2.34-3.43,5.64-6.76,10.23-6.56,4.76.37,7.91,5.3,7.28,9.71-.97,5.62-6.02,10.94-10.84,13.58-6.35,3.12-13.86,3.75-20.77,2.23-7.23-1.6-13.86-7.79-15.54-15.26-1.58-7.17.2-14.45,2.92-21.03,3.91-8.46,10.76-15.21,18.72-19.92,13.02-7.86,27.04-7.37,40.29-.25,16.5,8.9,26.82,28.55,23.3,47.15-2.23,11.26-9.37,20.82-17.86,28.22-9.85,9.18-22.02,15.93-35.11,19.15-6.59,1.8-13.29,3.19-20.25,3-14.59-.26-27.14-8.26-35.02-20.27-2.59-3.81-5.35-7.7-6.86-11.99-4.59-12.62-7.32-25.49-11.33-38.22-.49-1.78,2-2.75,2.82-1.07h0Z"/>
        <path class="cls-1" d="M688.24,30.74c-8.38.05-10.16,6.84-4.72,12.4,4.94,5.16,13.97,4.87,14.78-3.55.45-4.61-1.46-9.48-4.04-13.15-5.55-7.4-17.59-9.17-25.67-4.62-7.59,4.25-10.33,13.99-9.45,22.19.07.6.15,1.2.26,1.79.1.62.38,1.27-.15,1.98-.6.96-1.89,1.23-2.82.59-.76-.52-.71-1.26-.85-1.93-.33-2.05-.41-4.14-.25-6.21.78-8.15,4.75-16.38,11.86-20.76,10.54-6.62,27.9-4.6,32.85,8.1,2.44,6.43,2.25,15.11-3.56,19.74-3.55,2.55-8.5,3.96-12.86,2.36-7.71-2.69-10.93-14.74-3.69-19.71,2.62-1.8,5.75-2.21,8.56-1.77.7.11,1.18.76,1.07,1.47-.1.66-.68,1.12-1.33,1.09h0Z"/>
      </g>
    </g>
  </g>
</svg>